<svg width="36" height="36" viewBox="0 0 36 36" fill="none" xmlns="http://www.w3.org/2000/svg">
<g clip-path="url(#clip0_pricing)">
<g filter="url(#filter3_pricing)">
<rect x="2.00085" y="12.0122" width="27.5449" height="15.7562" rx="1.80645" transform="rotate(-19.1714 2.00085 12.0122)" fill="white" fill-opacity="0.2"/>
<rect x="1.71342" y="11.8731" width="27.9965" height="16.2078" rx="2.03226" transform="rotate(-19.1714 1.71342 11.8731)" stroke="#415B66" stroke-opacity="0.15" stroke-width="0.451613"/>
</g>
<g filter="url(#filter4_pricing)">
<rect x="2.00085" y="12.0122" width="27.5449" height="15.7562" rx="1.80645" transform="rotate(-19.1714 2.00085 12.0122)" fill="white" fill-opacity="0.2"/>
<rect x="2.28829" y="12.1513" width="27.0933" height="15.3046" rx="1.58065" transform="rotate(-19.1714 2.28829 12.1513)" stroke="white" stroke-width="0.451613"/>
</g>
</g>
<g filter="url(#filter0_pricing)">
<rect x="4.53064" y="12.5292" width="27.5449" height="15.7562" rx="1.80645" fill="white" fill-opacity="0.2"/>
<rect x="4.30483" y="12.3034" width="27.9965" height="16.2078" rx="2.03226" stroke="#415B66" stroke-opacity="0.15" stroke-width="0.451613"/>
</g>
<g filter="url(#filter1_pricing)">
<rect x="4.53064" y="12.5292" width="27.5449" height="15.7562" rx="1.80645" fill="white" fill-opacity="0.2"/>
<rect x="4.75645" y="12.755" width="27.0933" height="15.3046" rx="1.58065" stroke="white" stroke-width="0.451613"/>
</g>
<g filter="url(#filter2_pricing)">
<path d="M28.1417 13.9813C28.4962 13.9813 28.7324 14.2882 28.7325 14.5956C28.7325 15.3335 29.2647 15.8876 29.9738 15.8876C30.3281 15.8876 30.5643 16.1945 30.5646 16.5018V24.2821C30.5646 24.2983 30.5777 24.3123 30.5939 24.3124C30.6102 24.3124 30.6239 24.3254 30.6232 24.3417C30.6078 24.6941 30.3198 24.9266 30.0323 24.9266C29.3234 24.9268 28.7921 25.4808 28.7921 26.2186C28.7919 26.5875 28.4957 26.8329 28.2003 26.8329H8.4054C8.05092 26.8329 7.81474 26.526 7.81458 26.2186C7.81458 25.4807 7.28243 24.9266 6.57336 24.9266C6.219 24.9266 5.98276 24.6197 5.98254 24.3124V16.5018C5.98279 16.1331 6.27806 15.8876 6.57336 15.8876C7.28243 15.8876 7.81458 15.3335 7.81458 14.5956C7.81476 14.2268 8.11002 13.9813 8.4054 13.9813H28.1417ZM18.6866 16.1415C18.5083 16.1416 18.4103 16.2833 18.4103 16.5458V16.9198C17.0532 17.0243 16.0871 17.8294 16.0939 18.9979C16.0906 20.0149 16.8076 20.5973 17.9728 20.8768L18.4103 20.9882V22.7626C17.9257 22.7053 17.5555 22.4801 17.4005 22.0897C17.3096 21.8607 17.2016 21.7362 16.9591 21.7362H16.3361C16.0667 21.7362 15.9052 21.8907 15.9523 22.16C16.1543 23.2983 17.0566 23.9179 18.4103 23.9921V24.3593C18.4103 24.6219 18.5083 24.7634 18.6866 24.7635C18.8651 24.7635 18.963 24.6219 18.963 24.3593V23.9921C20.4817 23.9079 21.3638 23.1235 21.3673 21.9315C21.3639 20.7832 20.4988 20.1736 19.2999 19.9042L18.963 19.8231V18.1454C19.3571 18.1959 19.6404 18.3751 19.7784 18.6512C19.8895 18.8699 19.9907 18.9872 20.2296 18.9872H20.8458C21.1185 18.9871 21.2834 18.8327 21.2228 18.5634C21.0173 17.6305 20.1788 16.9977 18.963 16.9169V16.5292C18.963 16.28 18.8651 16.1415 18.6866 16.1415ZM18.963 21.1298C19.5624 21.2981 19.8922 21.5135 19.8956 21.9276C19.8923 22.3621 19.5355 22.6793 18.963 22.7567V21.1298ZM18.4103 19.6844C17.9391 19.543 17.579 19.3176 17.589 18.9003C17.589 18.5198 17.8784 18.2235 18.4103 18.1493V19.6844Z" fill="white" fill-opacity="0.4"/>
<path d="M28.1417 13.9813C28.4962 13.9813 28.7324 14.2882 28.7325 14.5956C28.7325 15.3335 29.2647 15.8876 29.9738 15.8876C30.3281 15.8876 30.5643 16.1945 30.5646 16.5018V24.2821C30.5646 24.2983 30.5777 24.3123 30.5939 24.3124C30.6102 24.3124 30.6239 24.3254 30.6232 24.3417C30.6078 24.6941 30.3198 24.9266 30.0323 24.9266C29.3234 24.9268 28.7921 25.4808 28.7921 26.2186C28.7919 26.5875 28.4957 26.8329 28.2003 26.8329H8.4054C8.05092 26.8329 7.81474 26.526 7.81458 26.2186C7.81458 25.4807 7.28243 24.9266 6.57336 24.9266C6.219 24.9266 5.98276 24.6197 5.98254 24.3124V16.5018C5.98279 16.1331 6.27806 15.8876 6.57336 15.8876C7.28243 15.8876 7.81458 15.3335 7.81458 14.5956C7.81476 14.2268 8.11002 13.9813 8.4054 13.9813H28.1417ZM18.6866 16.1415C18.5083 16.1416 18.4103 16.2833 18.4103 16.5458V16.9198C17.0532 17.0243 16.0871 17.8294 16.0939 18.9979C16.0906 20.0149 16.8076 20.5973 17.9728 20.8768L18.4103 20.9882V22.7626C17.9257 22.7053 17.5555 22.4801 17.4005 22.0897C17.3096 21.8607 17.2016 21.7362 16.9591 21.7362H16.3361C16.0667 21.7362 15.9052 21.8907 15.9523 22.16C16.1543 23.2983 17.0566 23.9179 18.4103 23.9921V24.3593C18.4103 24.6219 18.5083 24.7634 18.6866 24.7635C18.8651 24.7635 18.963 24.6219 18.963 24.3593V23.9921C20.4817 23.9079 21.3638 23.1235 21.3673 21.9315C21.3639 20.7832 20.4988 20.1736 19.2999 19.9042L18.963 19.8231V18.1454C19.3571 18.1959 19.6404 18.3751 19.7784 18.6512C19.8895 18.8699 19.9907 18.9872 20.2296 18.9872H20.8458C21.1185 18.9871 21.2834 18.8327 21.2228 18.5634C21.0173 17.6305 20.1788 16.9977 18.963 16.9169V16.5292C18.963 16.28 18.8651 16.1415 18.6866 16.1415Z" stroke="white" stroke-width="0.45"/>
</g>
<defs>
<filter id="filter0_pricing" x="1.82091" y="9.81945" width="32.9644" height="21.2478" filterUnits="userSpaceOnUse" color-interpolation-filters="sRGB"><feFlood flood-opacity="0" result="bg"/><feColorMatrix in="SourceAlpha" type="matrix" values="0 0 0 0 0 0 0 0 0 0 0 0 0 0 0 0 0 0 127 0" result="ha"/><feOffset/><feGaussianBlur stdDeviation="1.12903"/><feComposite in2="ha" operator="out"/><feColorMatrix type="matrix" values="0 0 0 0 0.0117647 0 0 0 0 0.188235 0 0 0 0 0.0117647 0 0 0 0.4 0"/><feBlend in2="bg" result="e1"/><feColorMatrix in="SourceAlpha" type="matrix" values="0 0 0 0 0 0 0 0 0 0 0 0 0 0 0 0 0 0 127 0" result="ha"/><feOffset dy="1.16516"/><feGaussianBlur stdDeviation="0.582581"/><feComposite in2="ha" operator="out"/><feColorMatrix type="matrix" values="0 0 0 0 0.0117647 0 0 0 0 0.188235 0 0 0 0 0.0117647 0 0 0 0.25 0"/><feBlend in2="e1" result="e2"/><feBlend in="SourceGraphic" in2="e2"/></filter>
<filter id="filter1_pricing" x="2.27258" y="10.2711" width="32.0611" height="20.3446" filterUnits="userSpaceOnUse" color-interpolation-filters="sRGB"><feFlood flood-opacity="0" result="bg"/><feColorMatrix in="SourceAlpha" type="matrix" values="0 0 0 0 0 0 0 0 0 0 0 0 0 0 0 0 0 0 127 0" result="ha"/><feOffset/><feGaussianBlur stdDeviation="1.12903"/><feComposite in2="ha" operator="out"/><feColorMatrix type="matrix" values="0 0 0 0 0.0117647 0 0 0 0 0.188235 0 0 0 0 0.0117647 0 0 0 0.4 0"/><feBlend in2="bg" result="e1"/><feColorMatrix in="SourceAlpha" type="matrix" values="0 0 0 0 0 0 0 0 0 0 0 0 0 0 0 0 0 0 127 0" result="ha"/><feOffset dy="1.16516"/><feGaussianBlur stdDeviation="0.582581"/><feComposite in2="ha" operator="out"/><feColorMatrix type="matrix" values="0 0 0 0 0.0117647 0 0 0 0 0.188235 0 0 0 0 0.0117647 0 0 0 0.25 0"/><feBlend in2="e1" result="e2"/><feBlend in="SourceGraphic" in2="e2"/></filter>
<filter id="filter2_pricing" x="3.65996" y="12.82" width="29.2858" height="17.4967" filterUnits="userSpaceOnUse" color-interpolation-filters="sRGB"><feFlood flood-opacity="0" result="bg"/><feColorMatrix in="SourceAlpha" type="matrix" values="0 0 0 0 0 0 0 0 0 0 0 0 0 0 0 0 0 0 127 0" result="ha"/><feOffset dy="1.16129"/><feGaussianBlur stdDeviation="1.16129"/><feComposite in2="ha" operator="out"/><feColorMatrix type="matrix" values="0 0 0 0 0.0117647 0 0 0 0 0.188235 0 0 0 0 0.0117647 0 0 0 0.4 0"/><feBlend in2="bg" result="e1"/><feColorMatrix in="SourceAlpha" type="matrix" values="0 0 0 0 0 0 0 0 0 0 0 0 0 0 0 0 0 0 127 0" result="ha"/><feOffset dy="1.16129"/><feGaussianBlur stdDeviation="0.580645"/><feComposite in2="ha" operator="out"/><feColorMatrix type="matrix" values="0 0 0 0 0.0117647 0 0 0 0 0.188235 0 0 0 0 0.0117647 0 0 0 0.25 0"/><feBlend in2="e1" result="e2"/><feBlend in="SourceGraphic" in2="e2"/></filter>
<filter id="filter3_pricing" x="-0.216439" y="0.74926" width="35.6261" height="28.4348" filterUnits="userSpaceOnUse" color-interpolation-filters="sRGB"><feFlood flood-opacity="0" result="bg"/><feColorMatrix in="SourceAlpha" type="matrix" values="0 0 0 0 0 0 0 0 0 0 0 0 0 0 0 0 0 0 127 0" result="ha"/><feOffset/><feGaussianBlur stdDeviation="1.12903"/><feComposite in2="ha" operator="out"/><feColorMatrix type="matrix" values="0 0 0 0 0.0117647 0 0 0 0 0.188235 0 0 0 0 0.0117647 0 0 0 0.4 0"/><feBlend in2="bg" result="e1"/><feColorMatrix in="SourceAlpha" type="matrix" values="0 0 0 0 0 0 0 0 0 0 0 0 0 0 0 0 0 0 127 0" result="ha"/><feOffset dy="1.16516"/><feGaussianBlur stdDeviation="0.582581"/><feComposite in2="ha" operator="out"/><feColorMatrix type="matrix" values="0 0 0 0 0.0117647 0 0 0 0 0.188235 0 0 0 0 0.0117647 0 0 0 0.25 0"/><feBlend in2="e1" result="e2"/><feBlend in="SourceGraphic" in2="e2"/></filter>
<filter id="filter4_pricing" x="0.235344" y="1.20104" width="34.7225" height="27.5313" filterUnits="userSpaceOnUse" color-interpolation-filters="sRGB"><feFlood flood-opacity="0" result="bg"/><feColorMatrix in="SourceAlpha" type="matrix" values="0 0 0 0 0 0 0 0 0 0 0 0 0 0 0 0 0 0 127 0" result="ha"/><feOffset/><feGaussianBlur stdDeviation="1.12903"/><feComposite in2="ha" operator="out"/><feColorMatrix type="matrix" values="0 0 0 0 0.0117647 0 0 0 0 0.188235 0 0 0 0 0.0117647 0 0 0 0.4 0"/><feBlend in2="bg" result="e1"/><feColorMatrix in="SourceAlpha" type="matrix" values="0 0 0 0 0 0 0 0 0 0 0 0 0 0 0 0 0 0 127 0" result="ha"/><feOffset dy="1.16516"/><feGaussianBlur stdDeviation="0.582581"/><feComposite in2="ha" operator="out"/><feColorMatrix type="matrix" values="0 0 0 0 0.0117647 0 0 0 0 0.188235 0 0 0 0 0.0117647 0 0 0 0.25 0"/><feBlend in2="e1" result="e2"/><feBlend in="SourceGraphic" in2="e2"/></filter>
<clipPath id="clip0_pricing"><rect width="28" height="8.12903" fill="white" transform="translate(4.5 2.38745)"/></clipPath>
</defs>
</svg>
